<svg xmlns="http://www.w3.org/2000/svg" xmlns:svg="http://www.w3.org/2000/svg" width="60" height="60" viewBox="0 0 180 180"><metadata/><mask id="avatarsRadiusMask"><rect width="180" height="180" x="0" y="0" fill="#fff" rx="0" ry="0"/></mask><g mask="url(#avatarsRadiusMask)"><g transform="translate(0, 66)"><g opacity=".9"><path id="Cable" stroke="#2A3544" stroke-width="6" d="M38 12C35.046 23.6966 18.0959 18.6663 14.6313 30.009C11.1668 41.3518 22.6565 50 32.1552 50"/><path id="Cable_2" stroke="#2A3544" stroke-width="4" d="M150 55C158.394 58.4864 170.102 47.4063 166 38.5C161.898 29.5936 150 31.8056 150 19.195"/></g><path fill="#273951" fill-rule="evenodd" d="M138 6C136.895 6 136 6.89543 136 8V22C136 23.1046 136.895 24 138 24H157C158.105 24 159 23.1046 159 22V8C159 6.89543 158.105 6 157 6H138ZM21 37C21 35.8954 21.8954 35 23 35H35C36.1046 35 37 35.8954 37 37V55C37 56.1046 36.1046 57 35 57H23C21.8954 57 21 56.1046 21 55V37ZM136 44C136 42.8954 136.895 42 138 42H157C158.105 42 159 42.8954 159 44V62C159 63.1046 158.105 64 157 64H138C136.895 64 136 63.1046 136 62V44Z" clip-rule="evenodd"/><mask id="sidesCables01Mask0" width="138" height="58" x="21" y="6" mask-type="alpha" maskUnits="userSpaceOnUse"><path fill="#fff" fill-rule="evenodd" d="M138 6C136.895 6 136 6.89543 136 8V22C136 23.1046 136.895 24 138 24H157C158.105 24 159 23.1046 159 22V8C159 6.89543 158.105 6 157 6H138ZM21 37C21 35.8954 21.8954 35 23 35H35C36.1046 35 37 35.8954 37 37V55C37 56.1046 36.1046 57 35 57H23C21.8954 57 21 56.1046 21 55V37ZM136 44C136 42.8954 136.895 42 138 42H157C158.105 42 159 42.8954 159 44V62C159 63.1046 158.105 64 157 64H138C136.895 64 136 63.1046 136 62V44Z" clip-rule="evenodd"/></mask><g mask="url(#sidesCables01Mask0)"><rect width="180" height="76" fill="#EF5350"/></g></g><g transform="translate(41, 0)"><g filter="url(#topGlowingBulb01Filter0)"><path fill="#fff" fill-opacity=".3" fill-rule="evenodd" d="M32 24C32 15.1634 39.1634 8 48 8H52C60.8366 8 68 15.1634 68 24V32C68 36.4183 64.4183 40 60 40H40C35.5817 40 32 36.4183 32 32V24Z" clip-rule="evenodd"/></g><path stroke="#fff" stroke-linecap="round" stroke-width="2" d="M49 11.5C53.9315 11.5 58.366 13.6281 61.4352 17.0162"/><path fill="#fff" fill-opacity=".8" fill-rule="evenodd" d="M49.8284 29L40.8284 20L38 22.8284L48 32.8284V40H52V32.9706L62.1421 22.8284L59.3137 20L50.3137 29H49.8284Z" clip-rule="evenodd"/><rect width="56" height="12" x="22" y="40" fill="#EF5350" rx="1"/><defs><filter id="topGlowingBulb01Filter0" width="52" height="48" x="24" y="0" color-interpolation-filters="sRGB" filterUnits="userSpaceOnUse"><feFlood flood-opacity="0" result="BackgroundImageFix"/><feColorMatrix in="SourceAlpha" type="matrix" values="0 0 0 0 0 0 0 0 0 0 0 0 0 0 0 0 0 0 127 0"/><feOffset/><feGaussianBlur stdDeviation="4"/><feColorMatrix type="matrix" values="0 0 0 0 1 0 0 0 0 1 0 0 0 0 1 0 0 0 0.5 0"/><feBlend in2="BackgroundImageFix" mode="normal" result="effect1_dropShadow"/><feBlend in="SourceGraphic" in2="effect1_dropShadow" mode="normal" result="shape"/><feColorMatrix in="SourceAlpha" result="hardAlpha" type="matrix" values="0 0 0 0 0 0 0 0 0 0 0 0 0 0 0 0 0 0 127 0"/><feOffset/><feGaussianBlur stdDeviation="2"/><feComposite in2="hardAlpha" k2="-1" k3="1" operator="arithmetic"/><feColorMatrix type="matrix" values="0 0 0 0 1 0 0 0 0 1 0 0 0 0 1 0 0 0 0.5 0"/><feBlend in2="shape" mode="normal" result="effect2_innerShadow"/></filter></defs></g><g transform="translate(25, 44)"><rect width="130" height="120" fill="#0076DE" rx="18"/><mask id="faceSquare01Mask0" width="130" height="120" x="0" y="0" mask-type="alpha" maskUnits="userSpaceOnUse"><rect width="130" height="120" fill="#fff" rx="18"/></mask><g mask="url(#faceSquare01Mask0)"><rect width="134" height="124" x="-2" y="-2" fill="#E53935"/><path fill="#000" fill-opacity=".1" fill-rule="evenodd" d="M15 0H11V18H15V0ZM23 0H19V30V34H23H72.416C73.1876 35.7659 74.9497 37 77 37C79.7614 37 82 34.7614 82 32C82 29.2386 79.7614 27 77 27C74.9497 27 73.1876 28.2341 72.416 30H23V0Z" clip-rule="evenodd"/><path fill="#fff" fill-opacity=".2" fill-rule="evenodd" d="M122 34.584C123.766 33.8124 125 32.0503 125 30C125 27.2386 122.761 25 120 25C117.239 25 115 27.2386 115 30C115 32.0503 116.234 33.8124 118 34.584V60V64H122H141V60H122V34.584Z" clip-rule="evenodd"/><path fill="#000" fill-opacity=".2" fill-rule="evenodd" d="M114 46H110V68V72H114H141V68H114V46Z" clip-rule="evenodd"/><path fill="#000" fill-opacity=".2" fill-rule="evenodd" d="M27 103.584C25.2341 102.812 24 101.05 24 99C24 96.2386 26.2386 94 29 94C31.7614 94 34 96.2386 34 99C34 101.05 32.7659 102.812 31 103.584V129V133H27H8V129H27V103.584Z" clip-rule="evenodd"/></g></g><g transform="translate(52, 124)"><path fill="#000" fill-opacity=".8" fill-rule="evenodd" d="M18 10.2222C18 21.7845 24.4741 28 38 28C51.5182 28 58 21.6615 58 10.2222C58 9.49622 57.1739 8 55 8C39.2707 8 29.1917 8 21 8C18.949 8 18 9.38479 18 10.2222Z" clip-rule="evenodd"/><mask id="mouthSmilie02Mask0" width="40" height="20" x="18" y="8" mask-type="alpha" maskUnits="userSpaceOnUse"><path fill="#fff" fill-rule="evenodd" d="M18 10.2222C18 21.7845 24.4741 28 38 28C51.5182 28 58 21.6615 58 10.2222C58 9.49622 57.1739 8 55 8C39.2707 8 29.1917 8 21 8C18.949 8 18 9.38479 18 10.2222Z" clip-rule="evenodd"/></mask><g mask="url(#mouthSmilie02Mask0)"><rect width="16" height="14" x="30" y="2" fill="#fff" rx="2"/></g></g><g transform="translate(38, 76)"><rect width="104" height="32" y="12" fill="#000" fill-opacity=".8" rx="16"/><rect width="10" height="12" x="24" y="22" fill="#F4F4F4" rx="2"/><rect width="10" height="12" x="70" y="22" fill="#F4F4F4" rx="2"/></g></g></svg>