<svg xmlns:dc="http://purl.org/dc/elements/1.1/" xmlns:cc="http://creativecommons.org/ns#" xmlns:rdf="http://www.w3.org/1999/02/22-rdf-syntax-ns#" xmlns:svg="http://www.w3.org/2000/svg" xmlns="http://www.w3.org/2000/svg" viewBox="0 0 180 180" width="60" height="60"><metadata><rdf:RDF><cc:Work><dc:format>image/svg+xml</dc:format><dc:type rdf:resource="http://purl.org/dc/dcmitype/StillImage"/><dc:title>Bottts</dc:title><dc:creator><cc:Agent><dc:title>Pablo Stanley</dc:title></cc:Agent></dc:creator><dc:source>https://bottts.com/</dc:source><cc:license rdf:resource="https://bottts.com/"/><dc:contributor><cc:Agent><dc:title>Florian Körner</dc:title></cc:Agent></dc:contributor></cc:Work></rdf:RDF></metadata><mask id="avatarsRadiusMask"><rect width="180" height="180" rx="0" ry="0" x="0" y="0" fill="#fff"/></mask><g mask="url(#avatarsRadiusMask)"><g transform="translate(0, 66)"><path fill-rule="evenodd" clip-rule="evenodd" d="M14.9809 20.9141C14 22.8393 14 25.3595 14 30.4V45.6C14 50.6405 14 53.1607 14.9809 55.0859C15.8438 56.7794 17.2206 58.1562 18.9141 59.0191C20.8393 60 23.3595 60 28.4 60H35.6C40.6405 60 43.1607 60 45.0859 59.0191C46.7794 58.1562 48.1562 56.7794 49.0191 55.0859C50 53.1607 50 50.6405 50 45.6V30.4C50 25.3595 50 22.8393 49.0191 20.9141C48.1562 19.2206 46.7794 17.8438 45.0859 16.9809C43.1607 16 40.6405 16 35.6 16H28.4C23.3595 16 20.8393 16 18.9141 16.9809C17.2206 17.8438 15.8438 19.2206 14.9809 20.9141ZM130.981 20.9141C130 22.8393 130 25.3595 130 30.4V45.6C130 50.6405 130 53.1607 130.981 55.0859C131.844 56.7794 133.221 58.1562 134.914 59.0191C136.839 60 139.36 60 144.4 60H151.6C156.64 60 159.161 60 161.086 59.0191C162.779 58.1562 164.156 56.7794 165.019 55.0859C166 53.1607 166 50.6405 166 45.6V30.4C166 25.3595 166 22.8393 165.019 20.9141C164.156 19.2206 162.779 17.8438 161.086 16.9809C159.161 16 156.64 16 151.6 16H144.4C139.36 16 136.839 16 134.914 16.9809C133.221 17.8438 131.844 19.2206 130.981 20.9141Z" fill="#0076DE"/><mask id="sidesSquareMask0" mask-type="alpha" maskUnits="userSpaceOnUse" x="14" y="16" width="152" height="44"><path fill-rule="evenodd" clip-rule="evenodd" d="M14.9809 20.9141C14 22.8393 14 25.3595 14 30.4V45.6C14 50.6405 14 53.1607 14.9809 55.0859C15.8438 56.7794 17.2206 58.1562 18.9141 59.0191C20.8393 60 23.3595 60 28.4 60H35.6C40.6405 60 43.1607 60 45.0859 59.0191C46.7794 58.1562 48.1562 56.7794 49.0191 55.0859C50 53.1607 50 50.6405 50 45.6V30.4C50 25.3595 50 22.8393 49.0191 20.9141C48.1562 19.2206 46.7794 17.8438 45.0859 16.9809C43.1607 16 40.6405 16 35.6 16H28.4C23.3595 16 20.8393 16 18.9141 16.9809C17.2206 17.8438 15.8438 19.2206 14.9809 20.9141ZM130.981 20.9141C130 22.8393 130 25.3595 130 30.4V45.6C130 50.6405 130 53.1607 130.981 55.0859C131.844 56.7794 133.221 58.1562 134.914 59.0191C136.839 60 139.36 60 144.4 60H151.6C156.64 60 159.161 60 161.086 59.0191C162.779 58.1562 164.156 56.7794 165.019 55.0859C166 53.1607 166 50.6405 166 45.6V30.4C166 25.3595 166 22.8393 165.019 20.9141C164.156 19.2206 162.779 17.8438 161.086 16.9809C159.161 16 156.64 16 151.6 16H144.4C139.36 16 136.839 16 134.914 16.9809C133.221 17.8438 131.844 19.2206 130.981 20.9141Z" fill="white"/></mask><g mask="url(#sidesSquareMask0)"><rect width="180" height="76" fill="#FFCA28"/><rect y="38" width="180" height="38" fill="black" fill-opacity="0.1"/></g></g><g transform="translate(41, 0)"><path fill-rule="evenodd" clip-rule="evenodd" d="M50 13C38.9543 13 30 21.9543 30 33V36H21C20.4477 36 20 36.4477 20 37V51C20 51.5523 20.4477 52 21 52H79C79.5523 52 80 51.5523 80 51V37C80 36.4477 79.5523 36 79 36H70V33C70 21.9543 61.0457 13 50 13Z" fill="#59C4FF"/><mask id="topBulb01Mask0" mask-type="alpha" maskUnits="userSpaceOnUse" x="20" y="13" width="60" height="39"><path fill-rule="evenodd" clip-rule="evenodd" d="M50 13C38.9543 13 30 21.9543 30 33V36H21C20.4477 36 20 36.4477 20 37V51C20 51.5523 20.4477 52 21 52H79C79.5523 52 80 51.5523 80 51V37C80 36.4477 79.5523 36 79 36H70V33C70 21.9543 61.0457 13 50 13Z" fill="white"/></mask><g mask="url(#topBulb01Mask0)"><rect width="100" height="52" fill="#FFCA28"/><path fill-rule="evenodd" clip-rule="evenodd" d="M50 36C52.2091 36 54 35.028 54 31.7143C54 28.4006 52.2091 24 50 24C47.7909 24 46 28.4006 46 31.7143C46 35.028 47.7909 36 50 36Z" fill="white" fill-opacity="0.6"/><rect x="20" y="13" width="60" height="23" fill="white" fill-opacity="0.4"/><path d="M50 14.5C49.4477 14.5 49 14.9477 49 15.5C49 16.0523 49.4477 16.5 50 16.5V14.5ZM61.6941 21.6875C62.0649 22.0968 62.6973 22.1281 63.1066 21.7573C63.5159 21.3865 63.5471 20.7541 63.1763 20.3448L61.6941 21.6875ZM65.7595 24.0473C65.5035 23.5579 64.8993 23.3686 64.4099 23.6246C63.9205 23.8806 63.7313 24.4848 63.9873 24.9742L65.7595 24.0473ZM65.4248 28.9559C65.5404 29.4959 66.0719 29.84 66.6119 29.7244C67.152 29.6088 67.4961 29.0773 67.3805 28.5373L65.4248 28.9559ZM50 16.5C54.6375 16.5 58.8065 18.4999 61.6941 21.6875L63.1763 20.3448C59.9256 16.7563 55.2256 14.5 50 14.5V16.5ZM63.9873 24.9742C64.6357 26.2139 65.1239 27.5501 65.4248 28.9559L67.3805 28.5373C67.0411 26.9518 66.4904 25.4448 65.7595 24.0473L63.9873 24.9742Z" fill="white"/></g></g><g transform="translate(25, 44)"><path fill-rule="evenodd" clip-rule="evenodd" d="M0 102V68.8517C0 64.3169 0.77112 59.8152 2.28039 55.5389L19.7614 12.0092C22.3014 4.81263 29.1036 0 36.7353 0L93.2647 0C100.896 0 107.699 4.81263 110.239 12.0092L127.72 55.5389C129.229 59.8152 130 64.3169 130 68.8517V102C130 111.941 121.941 120 112 120H18C8.05887 120 0 111.941 0 102Z" fill="#0076DE"/><mask id="faceSquareMask0" mask-type="alpha" maskUnits="userSpaceOnUse" x="0" y="0" width="130" height="120"><path fill-rule="evenodd" clip-rule="evenodd" d="M0 102V68.8517C0 64.3169 0.77112 59.8152 2.28039 55.5389L19.7614 12.0092C22.3014 4.81263 29.1036 0 36.7353 0L93.2647 0C100.896 0 107.699 4.81263 110.239 12.0092L127.72 55.5389C129.229 59.8152 130 64.3169 130 68.8517V102C130 111.941 121.941 120 112 120H18C8.05887 120 0 111.941 0 102Z" fill="white"/></mask><g mask="url(#faceSquareMask0)"><rect x="-2" y="-2" width="134" height="124" fill="#FFB300"/><path fill-rule="evenodd" clip-rule="evenodd" d="M120 130.649C116.812 113.308 110.453 128.073 95.1523 125.017C88.3923 123.666 93.8542 117.769 88.8124 115.213C84.5536 113.054 78.7499 114.793 73.8715 113.397C66.8312 111.382 66.9237 107.282 60.3639 106.669C54.1604 106.09 47.6616 107.999 41.4049 107.282C29.5967 105.928 34.4383 88.0585 25.5835 84.9025C16.7287 81.7465 2.15043 87.1967 0.242157 96.1317C-1.61816 104.842 10.8129 137.252 10.8129 137.252H120" fill="black" fill-opacity="0.2"/><path fill-rule="evenodd" clip-rule="evenodd" d="M156 122.767C104.757 122.767 99.4219 96.9746 74.2092 85.1582C48.9964 73.3418 26.9059 103.905 18.4298 74.2122C9.9537 44.5195 10.0005 137.072 10.0005 137.072H156V122.767Z" fill="black" fill-opacity="0.1"/><path fill-rule="evenodd" clip-rule="evenodd" d="M161.575 9.17587C149.64 8.20079 156.546 19.9843 151.83 19.9843C144.863 19.9843 149.727 12.0062 141.247 12.2048C139.028 12.2568 136.303 14.1443 136.135 16.709C135.773 22.2193 139.852 31.7253 134.297 31.9953C129.117 32.247 133.193 22.3562 132.652 15.7593C132.343 11.9871 128.47 9.00745 125.684 9.00745C118.113 9.00745 123.998 24.7147 118.549 24.7147C113.1 24.7147 117.341 15.6639 113.467 10.8715C108.964 5.29973 94.1677 2.55906 104.718 0H161.867" fill="black" fill-opacity="0.4"/></g></g><g transform="translate(52, 124)"><rect x="4" y="5" width="68" height="22" rx="5" fill="black" fill-opacity="0.2"/><rect x="8" y="9" width="60" height="14" rx="2" fill="black" fill-opacity="0.6"/><path fill-rule="evenodd" clip-rule="evenodd" d="M20 17L26 9H14L20 17Z" fill="#E1E6E8"/><path fill-rule="evenodd" clip-rule="evenodd" d="M32 17L38 9H26L32 17Z" fill="#E1E6E8"/><path fill-rule="evenodd" clip-rule="evenodd" d="M44 17L50 9H38L44 17Z" fill="#E1E6E8"/><path fill-rule="evenodd" clip-rule="evenodd" d="M56 17L62 9H50L56 17Z" fill="#E1E6E8"/></g><g transform="translate(38, 76)"><path fill-rule="evenodd" clip-rule="evenodd" d="M25 27.2L30.5 32.7C31 33.1 31.7 33.1 32.1 32.7L33.7 31.1C34.1 30.6 34.1 29.9 33.7 29.5L28.2 24L33.7 18.5C34.1 18 34.1 17.3 33.7 16.9L32.1 15.3C31.6 14.9 30.9 14.9 30.5 15.3L25 20.8L19.5 15.3C19 14.9 18.3 14.9 17.9 15.3L16.3 16.9C15.9 17.3 15.9 18 16.3 18.5L21.8 24L16.3 29.5C15.9 30 15.9 30.7 16.3 31.1L17.9 32.7C18.4 33.1 19.1 33.1 19.5 32.7L25 27.2Z" fill="black" fill-opacity="0.8"/><path fill-rule="evenodd" clip-rule="evenodd" d="M79 27.2L84.5 32.7C85 33.1 85.7 33.1 86.1 32.7L87.7 31.1C88.1 30.6 88.1 29.9 87.7 29.5L82.2 24L87.7 18.5C88.1 18 88.1 17.3 87.7 16.9L86.1 15.3C85.6 14.9 84.9 14.9 84.5 15.3L79 20.8L73.5 15.3C73 14.9 72.3 14.9 71.9 15.3L70.3 16.9C69.9 17.3 69.9 18 70.3 18.5L75.8 24L70.3 29.5C69.9 30 69.9 30.7 70.3 31.1L71.9 32.7C72.4 33.1 73.1 33.1 73.5 32.7L79 27.2Z" fill="black" fill-opacity="0.8"/></g></g></svg>